

-: Cover :- 
 
http://desibbrg.org/images/82536815928520551166.jpg


-: Screens :-

 
http://desibbrg.net/imghost/show.php?img=430587_31321855.png.html 
http://desibbrg.net/imghost/show.php?img=430586_58953798.png.html 
http://desibbrg.net/imghost/show.php?img=430585_54386917.png.html 
http://desibbrg.net/imghost/show.php?img=430584_39313996.png.html 
http://desibbrg.net/imghost/show.php?img=430583_19246935.png.html 
http://desibbrg.net/imghost/show.php?img=430582_19023545.png.html 
http://desibbrg.net/imghost/show.php?img=430581_72582805.png.html 
http://desibbrg.net/imghost/show.php?img=430580_90032164.png.html 
http://desibbrg.net/imghost/show.php?img=430579_86555104.png.html 
http://desibbrg.net/imghost/show.php?img=430578_15882866.png.html
 



-: Info :-  

General

Format                           : Matroska
File size                        : 2.73 GiB
Duration                         : 2h 23mn
Overall bit rate                 : 2 726 Kbps
Encoded date                     : UTC 2013-03-29 19:45:20
Writing application              : mkvmerge v5.8.0 ('No Sleep / Pillow') built on Sep  2 2012 15:37:04
Writing library                  : libebml v1.2.3 + libmatroska v1.3.0

Video
ID                               : 1
Format                           : AVC
Format/Info                      : Advanced Video Codec
Format profile                   : High@L4.1
Format settings, CABAC           : Yes
Format settings, ReFrames        : 3 frames
Format settings, GOP             : M=4, N=16
Codec ID                         : V_MPEG4/ISO/AVC
Duration                         : 2h 23mn
Bit rate mode                    : Variable
Bit rate                         : 2 500 Kbps
Maximum bit rate                 : 40.0 Mbps
Width                            : 1 280 pixels
Height                           : 544 pixels
Display aspect ratio             : 2.35:1
Frame rate                       : 24.000 fps
Color space                      : YUV
Chroma subsampling               : 4:2:0
Bit depth                        : 8 bits
Scan type                        : Progressive
Bits/(Pixel*Frame)               : 0.150
Stream size                      : 2.45 GiB (90%)
Title                            : PuLi - Special Chabbis - mHD - DDR
Writing library                  : x264 core 120 r2164 da19765
Language                         : Hindi

Audio
ID                               : 2
Format                           : AC-3
Format/Info                      : Audio Coding 3
Mode extension                   : CM (complete main)
Codec ID                         : A_AC3
Duration                         : 2h 23mn
Bit rate mode                    : Constant
Bit rate                         : 224 Kbps
Channel(s)                       : 6 channels
Channel positions                : Front: L C R, Side: L R, LFE
Sampling rate                    : 48.0 KHz
Bit depth                        : 16 bits
Stream size                      : 230 MiB (8%)
Title                            : PuLi - Hindi DD 5.1 Ch - DDR
Language                         : Hindi

Text
ID                               : 3
Format                           : UTF-8
Codec ID                         : S_TEXT/UTF8
Codec ID/Info                    : UTF-8 Plain Text
Title                            : English Subs - DDR
Language                         : English
 
http://www.imdb.com/title/tt2377938/

Special 26 Cast & Crew:

Banner
Viacom 18 Motion Pictures
Wide Frames Films
A Friday Filmworks

Status
Released

Release Date
8 Feb 2013

Genre
Action,Crime

Producer
Shital Bhatia
Kumar Mangat Pathak

Star Cast
Akshay Kumar.... Ajay
Kajal Aggarwal.... Priya
Anupam Kher.... Sharma
Rajesh Sharma.... Joginder
Kishore Kadam.... Iqbal
Jimmy Shergill.... Police Officer Ranveer Singh
Manoj bajpayee.... CBI Officer Waseem
Vipin Sharma.... ACP
Deepraj Rana.... Rahul
Divya Dutta.... Police Officer Shanti
Sukhwinder Chahal.... Minister Gupta
Abha Parmar.... Minister Gupta's Wife
Mukesh Bhatt 1.... Minister's PA
Neetu Singh 1.... Waseem's Wife
Neeru Singh.... Dance Number
Ujjwal Chopra.... Solanki
Paritosh Sand.... Additional Director CBI
Gurpal Singh.... Telephone Repair Guy
Jarnail Singh.... Telephone Recording Guy
Tiku Talsania.... Jewellery Shop Owner

Story / Writers
Neeraj Pandey

Background Music
Surender Sodhi

Choreographers
Ganesh Acharya

Costume Designers
Falguni Thakore

Publicity Pro
Spice

Censor Details:

Censor Dates
4 Feb 2013


Music Director

M.M. Kareem
Himesh Reshammiya

Color
C
Language
Hindi
Director

Neeraj Pandey

Singers

Sunidhi Chauhan
Bappi Lahiri
M.M. Kareem
K K
Aman Trikha
Shabab Sabri
Shreya Ghoshal
Chaitra Ambadipudi
Keerthi Sagathia
Papon

Lyricist

Irshad Kamil
Shabbir Ahmed

Editor

Shree Narayan Singh

Cinematography

Bobby Singh

Production Designers

Sunil Babu

Action

Abbas Ali Moghul

Publicity Designers

Marching Ants
Ravi Padda
Binny Padda

Shooting Location(City & Country)
India

Sound
Debasish Mishra

Music Company
T-Series